<?xml version="1.0" encoding="UTF-8"?>
<!DOCTYPE svg PUBLIC "-//W3C//DTD SVG 1.1//EN" "http://www.w3.org/Graphics/SVG/1.1/DTD/svg11.dtd">
<svg xmlns="http://www.w3.org/2000/svg" version="1.1" width="512px" height="512px" style="shape-rendering:geometricPrecision; text-rendering:geometricPrecision; image-rendering:optimizeQuality; fill-rule:evenodd; clip-rule:evenodd" xmlns:xlink="http://www.w3.org/1999/xlink">
<g><path style="opacity:0.959" fill="#000000" d="M 43.5,-0.5 C 184.833,-0.5 326.167,-0.5 467.5,-0.5C 471.194,1.86579 473.694,5.19913 475,9.5C 475.667,34.8333 475.667,60.1667 475,85.5C 474.333,86.8333 473.667,88.1667 473,89.5C 420.667,150.833 368.333,212.167 316,273.5C 315.978,325.204 315.311,376.87 314,428.5C 313.208,430.587 312.041,432.421 310.5,434C 278.601,460.077 246.601,485.91 214.5,511.5C 211.167,511.5 207.833,511.5 204.5,511.5C 199.201,509.351 196.368,505.351 196,499.5C 195.667,424.5 195.333,349.5 195,274.5C 142.333,212.5 89.6667,150.5 37,88.5C 35.3605,62.229 35.0272,35.8956 36,9.5C 37.2133,5.13051 39.7133,1.79717 43.5,-0.5 Z M 62.5,26.5 C 190.833,26.5 319.167,26.5 447.5,26.5C 447.5,40.1667 447.5,53.8333 447.5,67.5C 319.167,67.5 190.833,67.5 62.5,67.5C 62.5,53.8333 62.5,40.1667 62.5,26.5 Z M 78.5,95.5 C 196.333,94.334 314.333,94.1674 432.5,95C 384.625,150.539 337.125,206.373 290,262.5C 289.027,264.392 288.36,266.392 288,268.5C 287.833,318.17 287.333,367.837 286.5,417.5C 265.833,434.5 245.167,451.5 224.5,468.5C 223.987,400.458 223.153,332.458 222,264.5C 175.052,207.388 127.219,151.055 78.5,95.5 Z"/></g>
</svg>
