<?xml version="1.0" encoding="UTF-8"?>
<!DOCTYPE svg PUBLIC "-//W3C//DTD SVG 1.1//EN" "http://www.w3.org/Graphics/SVG/1.1/DTD/svg11.dtd">
<svg xmlns="http://www.w3.org/2000/svg" version="1.1" width="512px" height="512px" style="shape-rendering:geometricPrecision; text-rendering:geometricPrecision; image-rendering:optimizeQuality; fill-rule:evenodd; clip-rule:evenodd" xmlns:xlink="http://www.w3.org/1999/xlink">
<g><path style="opacity:0.945" fill="#000000" d="M 347.5,-0.5 C 374.167,-0.5 400.833,-0.5 427.5,-0.5C 429.144,0.316435 430.31,1.64977 431,3.5C 431.667,30.1667 431.667,56.8333 431,83.5C 430.626,84.4162 430.126,85.2496 429.5,86C 426.298,87.4833 422.964,87.8166 419.5,87C 417.667,86.5 416.5,85.3333 416,83.5C 415.667,65.1667 415.333,46.8333 415,28.5C 364.168,77.0065 308.001,118.173 246.5,152C 209.548,171.873 170.548,186.207 129.5,195C 114.317,198.243 98.9834,199.576 83.5,199C 80.484,197.471 79.1506,194.971 79.5,191.5C 79.4035,189.074 80.0702,186.907 81.5,185C 132.886,179.986 181.553,165.652 227.5,142C 291.659,108.087 349.993,66.0874 402.5,16C 384.167,15.6667 365.833,15.3333 347.5,15C 344.484,13.4714 343.151,10.9714 343.5,7.5C 343.282,3.93421 344.616,1.26754 347.5,-0.5 Z"/></g>
<g><path style="opacity:0.998" fill="#000000" d="M 511.5,459.5 C 511.5,475.5 511.5,491.5 511.5,507.5C 510.5,509.167 509.167,510.5 507.5,511.5C 392.167,511.5 276.833,511.5 161.5,511.5C 156.208,506.332 156.208,501.165 161.5,496C 272.833,495.5 384.166,495.333 495.5,495.5C 495.5,487.5 495.5,479.5 495.5,471.5C 392.833,471.667 290.166,471.5 187.5,471C 182.167,466 182.167,461 187.5,456C 199.495,455.5 211.495,455.333 223.5,455.5C 223.5,378.167 223.5,300.833 223.5,223.5C 207.5,223.5 191.5,223.5 175.5,223.5C 175.667,265.501 175.5,307.501 175,349.5C 170,354.833 165,354.833 160,349.5C 159.333,303.5 159.333,257.5 160,211.5C 160.5,209.667 161.667,208.5 163.5,208C 187.5,207.333 211.5,207.333 235.5,208C 237.333,208.5 238.5,209.667 239,211.5C 239.5,292.833 239.667,374.166 239.5,455.5C 250.167,455.5 260.833,455.5 271.5,455.5C 271.333,358.166 271.5,260.833 272,163.5C 272.5,161.667 273.667,160.5 275.5,160C 299.5,159.333 323.5,159.333 347.5,160C 349.333,160.5 350.5,161.667 351,163.5C 351.5,260.833 351.667,358.166 351.5,455.5C 362.167,455.5 372.833,455.5 383.5,455.5C 383.333,342.166 383.5,228.833 384,115.5C 384.5,113.667 385.667,112.5 387.5,112C 411.5,111.333 435.5,111.333 459.5,112C 461.333,112.5 462.5,113.667 463,115.5C 463.5,228.833 463.667,342.166 463.5,455.5C 478.17,455.333 492.837,455.5 507.5,456C 509.35,456.69 510.684,457.856 511.5,459.5 Z M 399.5,127.5 C 415.5,127.5 431.5,127.5 447.5,127.5C 447.5,236.833 447.5,346.167 447.5,455.5C 431.5,455.5 415.5,455.5 399.5,455.5C 399.5,346.167 399.5,236.833 399.5,127.5 Z M 287.5,175.5 C 303.5,175.5 319.5,175.5 335.5,175.5C 335.5,268.833 335.5,362.167 335.5,455.5C 319.5,455.5 303.5,455.5 287.5,455.5C 287.5,362.167 287.5,268.833 287.5,175.5 Z"/></g>
<g><path style="opacity:0.988" fill="#000000" d="M 51.5,247.5 C 75.5023,247.333 99.5023,247.5 123.5,248C 124.416,248.374 125.25,248.874 126,249.5C 127.646,273.079 127.979,296.745 127,320.5C 121.924,325.756 116.924,325.756 112,320.5C 111.5,301.503 111.333,282.503 111.5,263.5C 95.5,263.5 79.5,263.5 63.5,263.5C 63.6666,282.503 63.4999,301.503 63,320.5C 57.9244,325.756 52.9244,325.756 48,320.5C 47.3333,297.5 47.3333,274.5 48,251.5C 48.6897,249.65 49.8564,248.316 51.5,247.5 Z"/></g>
<g><path style="opacity:0.929" fill="#000000" d="M 100.5,511.5 C 91.8333,511.5 83.1667,511.5 74.5,511.5C 33.1667,502.833 8.16667,477.833 -0.5,436.5C -0.5,427.833 -0.5,419.167 -0.5,410.5C 7.8748,369.625 32.5415,344.791 73.5,336C 112.53,331.77 142.697,345.936 164,378.5C 184.511,419.925 178.677,457.092 146.5,490C 133.014,501.245 117.68,508.411 100.5,511.5 Z M 87.5,351.5 C 121.443,354.285 144.276,371.618 156,403.5C 163.985,440.912 151.485,469.079 118.5,488C 85.2854,501.289 56.4521,494.789 32,468.5C 14.3847,444.146 11.718,418.146 24,390.5C 38.2503,366.13 59.417,353.13 87.5,351.5 Z M 77.5,393.5 C 78.8197,396.428 79.4864,399.761 79.5,403.5C 79.1667,406.833 78.8333,410.167 78.5,413.5C 70.8836,407.225 70.5502,400.558 77.5,393.5 Z M 95.5,433.5 C 102.449,436.919 104.282,442.253 101,449.5C 99.6487,451.019 98.1487,452.352 96.5,453.5C 95.5033,446.866 95.17,440.2 95.5,433.5 Z"/></g>
<g><path style="opacity:0.949" fill="#000000" d="M 83.5,367.5 C 86.9783,367.184 90.3117,367.684 93.5,369C 95.0163,370.897 95.683,373.064 95.5,375.5C 111.964,377.784 119.797,387.118 119,403.5C 118.5,405.333 117.333,406.5 115.5,407C 112.036,407.817 108.702,407.483 105.5,406C 103.956,403.001 102.789,399.834 102,396.5C 100.172,394.919 98.172,393.585 96,392.5C 95.1685,400.188 95.3352,407.855 96.5,415.5C 114.786,420.642 122.286,432.642 119,451.5C 115.444,462.553 107.944,469.22 96.5,471.5C 94.9515,478.612 90.6182,481.112 83.5,479C 80.4792,477.461 79.1459,474.961 79.5,471.5C 63.0301,469.211 55.1967,459.877 56,443.5C 56.5,441.667 57.6667,440.5 59.5,440C 62.9643,439.183 66.2976,439.517 69.5,441C 71.0444,443.999 72.2111,447.166 73,450.5C 74.828,452.081 76.828,453.415 79,454.5C 79.8315,446.812 79.6648,439.145 78.5,431.5C 60.2142,426.358 52.7142,414.358 56,395.5C 59.5556,384.447 67.0556,377.78 78.5,375.5C 79.1913,372.095 80.8579,369.429 83.5,367.5 Z M 77.5,393.5 C 70.5502,400.558 70.8836,407.225 78.5,413.5C 78.8333,410.167 79.1667,406.833 79.5,403.5C 79.4864,399.761 78.8197,396.428 77.5,393.5 Z M 95.5,433.5 C 95.17,440.2 95.5033,446.866 96.5,453.5C 98.1487,452.352 99.6487,451.019 101,449.5C 104.282,442.253 102.449,436.919 95.5,433.5 Z"/></g>
</svg>
