<?xml version="1.0" encoding="UTF-8"?>
<!DOCTYPE svg PUBLIC "-//W3C//DTD SVG 1.1//EN" "http://www.w3.org/Graphics/SVG/1.1/DTD/svg11.dtd">
<svg xmlns="http://www.w3.org/2000/svg" version="1.1" width="512px" height="512px" style="shape-rendering:geometricPrecision; text-rendering:geometricPrecision; image-rendering:optimizeQuality; fill-rule:evenodd; clip-rule:evenodd" xmlns:xlink="http://www.w3.org/1999/xlink">
<g><path style="opacity:1" fill="#e2574c" d="M 55.5,-0.5 C 149.167,-0.5 242.833,-0.5 336.5,-0.5C 336.5,-0.166667 336.5,0.166667 336.5,0.5C 335.336,38.6645 335.169,76.9978 336,115.5C 338.294,129.936 346.461,139.103 360.5,143C 399.833,143.667 439.167,143.667 478.5,143C 448.632,113.299 418.965,83.4653 389.5,53.5C 419.749,82.248 449.583,111.581 479,141.5C 479.667,256.833 479.667,372.167 479,487.5C 477.608,493.214 474.941,498.214 471,502.5C 466.4,506.626 461.234,509.626 455.5,511.5C 322.167,511.5 188.833,511.5 55.5,511.5C 46.7961,508.637 39.9628,503.304 35,495.5C 33.8035,492.911 32.8035,490.244 32,487.5C 31.3333,332.833 31.3333,178.167 32,23.5C 33.3923,17.7863 36.059,12.7863 40,8.5C 44.5995,4.37379 49.7662,1.37379 55.5,-0.5 Z"/></g>
<g><path style="opacity:1" fill="#b53629" d="M 336.5,0.5 C 354.5,17.8333 372.167,35.5 389.5,53.5C 418.965,83.4653 448.632,113.299 478.5,143C 439.167,143.667 399.833,143.667 360.5,143C 346.461,139.103 338.294,129.936 336,115.5C 335.169,76.9978 335.336,38.6645 336.5,0.5 Z"/></g>
<g><path style="opacity:1" fill="#fefcfc" d="M 151.5,223.5 C 163.951,222.917 176.284,223.751 188.5,226C 203.582,233.998 209.749,246.498 207,263.5C 202.756,277.076 193.589,284.91 179.5,287C 173.843,287.499 168.176,287.666 162.5,287.5C 162.666,296.173 162.5,304.84 162,313.5C 157.737,320.157 152.403,321.157 146,316.5C 145.027,314.608 144.36,312.608 144,310.5C 143.333,283.5 143.333,256.5 144,229.5C 145.707,226.41 148.207,224.41 151.5,223.5 Z"/></g>
<g><path style="opacity:1" fill="#fefcfc" d="M 230.5,223.5 C 246.011,222.661 261.345,223.827 276.5,227C 291.308,233.82 300.142,245.32 303,261.5C 305.45,275.414 303.117,288.414 296,300.5C 287.203,312.317 275.37,318.483 260.5,319C 250.5,319.667 240.5,319.667 230.5,319C 228.376,317.878 226.543,316.378 225,314.5C 223.351,286.587 223.017,258.587 224,230.5C 225.694,227.642 227.861,225.309 230.5,223.5 Z"/></g>
<g><path style="opacity:1" fill="#fefcfc" d="M 326.5,223.5 C 337.838,223.333 349.172,223.5 360.5,224C 366.469,226.103 368.636,230.27 367,236.5C 366.215,238.286 365.049,239.786 363.5,241C 354.916,242.41 346.25,242.91 337.5,242.5C 337.5,251.833 337.5,261.167 337.5,270.5C 344.841,270.334 352.174,270.5 359.5,271C 364.155,273.897 365.655,278.063 364,283.5C 362.833,284.667 361.667,285.833 360.5,287C 352.92,288.396 345.253,288.896 337.5,288.5C 337.943,297.608 337.443,306.608 336,315.5C 329.855,321.315 324.522,320.649 320,313.5C 319.333,285.833 319.333,258.167 320,230.5C 321.425,227.394 323.592,225.06 326.5,223.5 Z"/></g>
<g><path style="opacity:1" fill="#e2574c" d="M 162.5,241.5 C 168.925,241.13 175.258,241.63 181.5,243C 187.223,247.84 189.057,254.007 187,261.5C 185.75,264.171 183.917,266.337 181.5,268C 175.258,269.37 168.925,269.87 162.5,269.5C 162.5,260.167 162.5,250.833 162.5,241.5 Z"/></g>
<g><path style="opacity:1" fill="#e2584d" d="M 243.5,242.5 C 250.175,242.334 256.842,242.5 263.5,243C 276.756,247.776 283.089,257.276 282.5,271.5C 283.057,285.748 276.724,295.248 263.5,300C 256.842,300.5 250.175,300.666 243.5,300.5C 243.5,281.167 243.5,261.833 243.5,242.5 Z"/></g>
</svg>
