<?xml version="1.0" encoding="UTF-8"?>
<!DOCTYPE svg PUBLIC "-//W3C//DTD SVG 1.1//EN" "http://www.w3.org/Graphics/SVG/1.1/DTD/svg11.dtd">
<svg xmlns="http://www.w3.org/2000/svg" version="1.1" width="512px" height="512px" style="shape-rendering:geometricPrecision; text-rendering:geometricPrecision; image-rendering:optimizeQuality; fill-rule:evenodd; clip-rule:evenodd" xmlns:xlink="http://www.w3.org/1999/xlink">
<g><path style="opacity:0.99" fill="#000000" d="M 75.5,-0.5 C 81.1667,-0.5 86.8333,-0.5 92.5,-0.5C 96.5661,1.36941 100.566,3.53607 104.5,6C 133.667,35.1667 162.833,64.3333 192,93.5C 200.887,107.734 200.554,121.734 191,135.5C 180.303,145.863 169.97,156.529 160,167.5C 151.759,181.546 150.425,196.213 156,211.5C 188.5,274.667 236.333,322.5 299.5,355C 314.787,360.575 329.454,359.241 343.5,351C 354.471,341.03 365.137,330.697 375.5,320C 389.25,310.405 403.25,310.072 417.5,319C 446.667,348.167 475.833,377.333 505,406.5C 507.464,410.434 509.631,414.434 511.5,418.5C 511.5,424.167 511.5,429.833 511.5,435.5C 508.965,442.216 505.131,448.216 500,453.5C 487.473,466.027 474.973,478.527 462.5,491C 447.234,502.305 430.234,509.138 411.5,511.5C 400.5,511.5 389.5,511.5 378.5,511.5C 341.467,505.673 306.467,493.506 273.5,475C 179.332,419.833 103.165,346 45,253.5C 22.0043,216.33 6.83764,176.33 -0.5,133.5C -0.5,121.833 -0.5,110.167 -0.5,98.5C 2.15578,80.1796 8.98912,63.5129 20,48.5C 35.174,32.6597 51.0073,17.493 67.5,3C 70.3093,1.9066 72.976,0.739932 75.5,-0.5 Z"/></g>
</svg>
