<?xml version="1.0" encoding="UTF-8"?>
<!DOCTYPE svg PUBLIC "-//W3C//DTD SVG 1.1//EN" "http://www.w3.org/Graphics/SVG/1.1/DTD/svg11.dtd">
<svg xmlns="http://www.w3.org/2000/svg" version="1.1" width="512px" height="512px" style="shape-rendering:geometricPrecision; text-rendering:geometricPrecision; image-rendering:optimizeQuality; fill-rule:evenodd; clip-rule:evenodd" xmlns:xlink="http://www.w3.org/1999/xlink">
<g><path style="opacity:0.972" fill="#000000" d="M 433.5,95.5 C 437.637,95.1463 441.637,95.6463 445.5,97C 456.333,107.833 467.167,118.667 478,129.5C 480.243,134.725 479.909,139.725 477,144.5C 383.806,238.027 290.306,331.194 196.5,424C 191.816,425.102 187.483,424.436 183.5,422C 132.639,371.472 82.139,320.639 32,269.5C 31.1462,265.375 31.4796,261.375 33,257.5C 43.8333,246.667 54.6667,235.833 65.5,225C 69.3749,223.48 73.3749,223.146 77.5,224C 114.139,259.639 150.472,295.639 186.5,332C 189.833,334 193.167,334 196.5,332C 275.395,252.938 354.395,174.105 433.5,95.5 Z"/></g>
</svg>
